<svg width="50" height="50" viewBox="0 0 50 50" fill="none" xmlns="http://www.w3.org/2000/svg">
<g clip-path="url(#clip0_1_30)">
<path d="M25 50C38.8071 50 50 38.8071 50 25C50 11.1929 38.8071 0 25 0C11.1929 0 0 11.1929 0 25C0 38.8071 11.1929 50 25 50Z" fill="#7FD1B9"/>
<g filter="url(#filter0_d_1_30)">
<path d="M27.625 30.875C27.625 30.375 27.425 29.9 27.025 29.45C26.6416 29 26.15 28.5834 25.55 28.2C24.95 27.8167 24.15 27.35 23.15 26.8C21.9166 26.1167 20.9083 25.5167 20.125 25C19.3584 24.4834 18.7083 23.8834 18.175 23.2C17.6416 22.5167 17.375 21.7667 17.375 20.95C17.375 20.1167 17.7583 19.225 18.525 18.275C19.2916 17.3084 20.225 16.5 21.325 15.85C22.4417 15.1834 23.4666 14.85 24.4 14.85C25.5166 14.85 26.825 14.975 28.325 15.225C29.825 15.475 30.925 15.7417 31.625 16.025V21.5H29.275C28.575 20.15 27.8 19.1 26.95 18.35C26.1167 17.6 25.2333 17.225 24.3 17.225C23.6333 17.225 23.1084 17.4417 22.725 17.875C22.3417 18.2917 22.15 18.825 22.15 19.475C22.15 20.0084 22.35 20.5167 22.75 21C23.1666 21.4667 23.675 21.9 24.275 22.3C24.8916 22.6834 25.7167 23.1584 26.75 23.725C27.9667 24.3917 28.95 24.975 29.7 25.475C30.45 25.975 31.0834 26.5584 31.6 27.225C32.1167 27.8917 32.375 28.625 32.375 29.425C32.375 30.2584 31.9667 31.1584 31.15 32.125C30.3333 33.075 29.3333 33.8834 28.15 34.55C26.9833 35.2 25.9167 35.525 24.95 35.525C23.7834 35.525 22.3833 35.4 20.75 35.15C19.1334 34.9 17.9667 34.6334 17.25 34.35V28.875H19.6C20.3334 30.225 21.1833 31.275 22.15 32.025C23.1166 32.775 24.0917 33.15 25.075 33.15C25.8417 33.15 26.4583 32.9334 26.925 32.5C27.3916 32.05 27.625 31.5084 27.625 30.875Z" fill="black"/>
</g>
<path d="M50 25C50 28.2831 49.3534 31.534 48.097 34.5671C46.8406 37.6003 44.9991 40.3562 42.6777 42.6777C40.3562 44.9992 37.6002 46.8406 34.5671 48.097C31.534 49.3533 28.2831 50 25 50C21.7169 50 18.4661 49.3533 15.4329 48.097C12.3998 46.8406 9.6438 44.9992 7.32235 42.6777C5.00085 40.3562 3.15938 37.6002 1.90301 34.5671C0.646645 31.534 -2.87013e-07 28.2831 0 25H3.81726C3.81726 27.7817 4.36516 30.5363 5.4297 33.1063C6.49425 35.6763 8.05455 38.0115 10.0216 39.9785C11.9886 41.9454 14.3237 43.5058 16.8937 44.5703C19.4637 45.6349 22.2183 46.1828 25 46.1828C27.7817 46.1828 30.5363 45.6349 33.1063 44.5703C35.6763 43.5058 38.0115 41.9454 39.9785 39.9785C41.9454 38.0115 43.5058 35.6763 44.5703 33.1063C45.6348 30.5363 46.1828 27.7817 46.1828 25H50Z" fill="#D9D9D9"/>
<path d="M0 25C0 21.7169 0.646645 18.4661 1.90301 15.4329C3.15938 12.3998 5.00085 9.6438 7.32235 7.32235C9.6438 5.00085 12.3998 3.15938 15.4329 1.90301C18.4661 0.646645 21.7169 -1.43506e-07 25 0C28.2831 1.43507e-07 31.534 0.646645 34.5671 1.90301C37.6003 3.15938 40.3562 5.00085 42.6777 7.32235C44.9991 9.6438 46.8406 12.3998 48.097 15.4329C49.3534 18.4661 50 21.7169 50 25H46.1828C46.1828 22.2183 45.6348 19.4637 44.5703 16.8937C43.5058 14.3237 41.9454 11.9886 39.9785 10.0216C38.0115 8.05455 35.6763 6.49425 33.1063 5.4297C30.5363 4.36516 27.7817 3.81726 25 3.81726C22.2183 3.81726 19.4637 4.36516 16.8937 5.4297C14.3237 6.49425 11.9886 8.05455 10.0216 10.0216C8.05455 11.9886 6.49425 14.3237 5.4297 16.8937C4.36516 19.4637 3.81726 22.2183 3.81726 25H0Z" fill="#D9D9D9"/>
</g>
<defs>
<filter id="filter0_d_1_30" x="17.25" y="14.85" width="26.125" height="31.675" filterUnits="userSpaceOnUse" color-interpolation-filters="sRGB">
<feFlood flood-opacity="0" result="BackgroundImageFix"/>
<feColorMatrix in="SourceAlpha" type="matrix" values="0 0 0 0 0 0 0 0 0 0 0 0 0 0 0 0 0 0 127 0" result="hardAlpha"/>
<feOffset dx="7" dy="7"/>
<feGaussianBlur stdDeviation="2"/>
<feComposite in2="hardAlpha" operator="out"/>
<feColorMatrix type="matrix" values="0 0 0 0 0 0 0 0 0 0 0 0 0 0 0 0 0 0 0.25 0"/>
<feBlend mode="normal" in2="BackgroundImageFix" result="effect1_dropShadow_1_30"/>
<feBlend mode="normal" in="SourceGraphic" in2="effect1_dropShadow_1_30" result="shape"/>
</filter>
<clipPath id="clip0_1_30">
<rect width="50" height="50" fill="white"/>
</clipPath>
</defs>
</svg>
